# xmcd CD database file generated by Grip 3.3.1
# 
# Track frame offsets:
#       182
#       16532
#       35575
#       56370
#       75952
#       92490
#       105460
#       120195
#       137050
#       155165
#       171525
#       186987
#       200185
#       219927
# 
# Disc length: 3238 seconds
# 
# Revision: 3
# Processed by: cddbd v1.5.2PL0 Copyright (c) Steve Scherf et al.
# Submitted via: Grip 3.3.1
# 
DISCID=b10ca40e
DTITLE=Unbekannter Künstler - Unbekannter Titel
DYEAR=1900
DGENRE=Blues
TTITLE0=Titel 01
TTITLE1=Titel 02
TTITLE2=Titel 03
TTITLE3=Titel 04
TTITLE4=Titel 05
TTITLE5=Titel 06
TTITLE6=Titel 07
TTITLE7=Titel 08
TTITLE8=Titel 09
TTITLE9=Titel 10
TTITLE10=Titel 11
TTITLE11=Titel 12
TTITLE12=Titel 13
TTITLE13=Titel 14
EXTD=
EXTT0=
EXTT1=
EXTT2=
EXTT3=
EXTT4=
EXTT5=
EXTT6=
EXTT7=
EXTT8=
EXTT9=
EXTT10=
EXTT11=
EXTT12=
EXTT13=
PLAYORDER=
